<svg version="1" xmlns="http://www.w3.org/2000/svg" width="1333.333" height="1333.333" viewBox="0 0 1000.000000 1000.000000"><path d="M112 24.7c-16.6 2.6-30 7.6-42.7 15.8-21.5 14-37 36.5-42.9 62-1.8 7.7-1.9 21.3-1.9 398v390l2.2 8.8c9.6 37.4 38.3 65.6 75.8 74.3 7.7 1.8 21.3 1.9 397.5 1.9s389.8-.1 397.5-1.9c37.5-8.7 66.2-36.9 75.8-74.3l2.2-8.8v-781l-2.2-8.8c-8.7-34-33.2-60.6-66-71.6-16.1-5.4 8.4-5.1-408.2-5-211.5.1-385.7.3-387.1.6zm350.5 167.5c.2.7.7 31 1.2 67.3.8 55.4.7 69.4-.6 87.3-2.3 32.2-.2 43.1 10.3 54 5.1 5.4 8.4 7.2 13.1 7.2 7.6 0 12.1-4.7 15-15.6 1.3-4.8 1.6-14.7 2-54.4.3-26.7.7-69 1-94 .3-25 .5-46.1.5-46.8 0-1 4.4-1.2 20.3-1l20.2.3.7 15c.6 13.5.6 27.8.4 100 0 11.5.4 33.4.8 48.5.6 19.1.5 30.3-.3 36.5-2.7 22.2-9.2 38.8-18.6 47.3-10.3 9.4-21 11.5-49.2 9.3-28.1-2.2-35.7-4.6-44.6-14-8.7-9.1-15.5-24.4-17.8-40.4-1.5-10.3-.6-66.9 1.6-100.2.9-14.4 1.5-38.6 1.5-64.7v-41.7l9.3-.4c24.4-.8 32.8-.7 33.2.5zm247 3.8c9.4.7 17.3 1.5 17.6 1.9.5.6-.5 169.3-1.4 225.1l-.4 25.5-18.4-.3c-10.1-.1-19-.4-19.6-.7-1-.3-1.3-7.4-1.4-30.2-.1-30.8-.9-45-2.2-40.3-.4 1.4-1.6 7-2.8 12.5-1.2 5.5-4.1 15.6-6.5 22.4-2.5 6.9-4.8 15.4-5.2 19l-.7 6.6h-12c-17.7-.1-17 .5-21.2-18.5-1.9-8.5-4.5-17.9-5.7-20.8l-2.3-5.4-.6 21.9c-.4 12-1 25.1-1.4 29.1l-.6 7.4-19.7-.4c-15.7-.2-20.1-.6-21.5-1.8-1.7-1.4-1.8-3.9-.9-52 1.3-73.1.7-125.7-2.3-188.9l-.6-13.4 21.7.5c17.2.3 21.9.7 23 1.8.8.8 2.4 6.7 3.6 13 1.2 6.3 4.6 21.2 7.5 33 3 11.8 7.7 34.3 10.5 50 2.8 15.7 5.3 29.2 5.6 30 1 2.6 4.2-8.3 9.9-34 3-13.5 7-31.5 8.9-40 1.9-8.5 4-19.6 4.6-24.5 1-7.8 4.3-25.3 5.6-29.3.3-1 1.9-1.3 6.2-.9 3.1.2 13.4 1 22.7 1.7zm123.4-1c27.4 2.9 42.3 12.8 46.7 31.3 2.3 10 3 43.2 1.5 75.3-1.6 33.7-3.9 42.9-12.7 51.6-7.9 8-17.6 10.6-41.5 11.5l-17.6.6-.6 18.6c-.4 10.2-.7 29.5-.7 42.8 0 22.1-.2 24.3-1.7 25.1-2.5 1.3-39.5 2.5-41.2 1.3-2-1.3-3.5-49.1-2.5-79.1.4-12.4.8-55.1.9-95 .1-39.9.5-75.1 1-78.2.6-5.1 1-5.7 3.4-6.1 5.8-.9 55.5-.6 65 .3zm-491.8 2.9c3.6 1.2 8.7 3.7 11.2 5.6 9.9 7.6 20.2 23.4 24.6 38 4.2 13.6 3.8 28.5-1.5 52.5-4.2 19.2-10 29-19.9 33.7l-3.4 1.6 4.2 2.7c7.2 4.6 13.4 11.6 15.8 17.8 2.1 5.2 2.3 8 2.9 32.7.7 30.2.2 27.4 10.5 54.3 2.6 6.7 4.4 12.9 4.1 13.7-.4 1.3-4.1 1.5-23.5 1.5h-23l-2.5-3.3c-3.4-4.5-7.2-12.9-9.2-20.7-1.8-6.9-2.2-18.9-1.4-41.5.5-12.2.4-13.3-1.9-17.9-4.7-9.5-9.3-12.5-21.9-14.1l-5.3-.7.6 46.3c.4 31.4.3 46.9-.4 47.9-.8 1.2-4.1 1.6-16.3 1.8-8.4.1-18.9-.1-23.3-.5l-8-.8-1.2-25.5c-1.3-28.3-3.1-192.1-2.3-212.5l.5-13 26.5-.7c14.6-.4 28.5-.9 31-1.2 9.7-.9 26.4.3 33.1 2.3zm-121.5 4.2c-.3 3.4-.6 12.2-.6 19.5V235h-35.1l.2 6.2c.4 22.9-.1 192.2-.7 200.2l-.7 9.8-19.6-.4c-10.8-.2-20.2-.7-20.9-1.2-1.1-.7-1.3-11.1-.7-59.5.5-37.9.3-67.8-.4-84.6-.6-14.3-1.4-35.9-1.8-48.1l-.6-22.1-14.9-.5c-8.2-.3-15.1-.7-15.3-1-.2-.2-.7-8-1.1-17.4-.6-14.1-.4-17.3.7-18 1.2-.8 28.3-1.4 93.3-2.2l18.9-.2-.7 6.1zm-86.4 276.7c1.7 1.7 2.3 4 3 12.8 1 11.7-.2 32.7-2.1 36.2-2.7 5.1-15.2 5.3-20.3.2l-2.8-2.8v-20.4c0-22.5.4-24.2 6-27.1 4.7-2.4 13.3-1.9 16.2 1.1zM377 496.1c0 20 .6 23.9 3.6 23.9 2.7 0 3.4-5 3.4-24.1V477h10v22.2c0 19.2-.2 22.8-1.8 25.8-2.5 5-5.4 6.2-13.2 5.4-12.7-1.2-13.1-2.2-12.9-31.2.1-11.9.4-22 .6-22.5.2-.4 2.6-.7 5.4-.7h4.9v20.1zm77.2-18.1c3.4 1.6 4.8 4.9 4.8 11.5v5.5h-4.4c-4 0-4.4-.2-4.9-3-.4-1.8-1.3-3-2.2-3-2.8 0-1.6 2.5 4.6 9.5 7.4 8.3 8.9 11.6 8.9 19.3 0 11.4-2.4 14.2-12.1 14.2-9.5 0-12.9-3.9-12.9-14.7v-5.4l4.8.3c4.6.3 4.7.4 5 3.8.4 4.3 1.9 6.1 3.2 4 2.1-3.2.9-6-4.6-11.7-6.6-6.9-9.3-11.8-10-18.1-.7-6.8.6-10.4 4.7-12.5 3.7-2 10.3-1.8 15.1.3zm244 .8c1.7 1.7 2.3 4 3 12.8 1 11.7-.2 32.7-2.1 36.2-2.7 5.1-15.2 5.3-20.3.2l-2.8-2.8v-20.4c0-22.5.4-24.2 6-27.1 4.7-2.4 13.3-1.9 16.2 1.1zm-497.2 1c3.9 3.9 5.3 9.5 4 16.3-.6 2.9-1.6 6-2.4 6.7-1.1 1.1-1 1.9.5 5 1.2 2.2 1.9 5.7 1.9 8.9 0 3 .7 7 1.5 9 .8 1.9 1.5 3.7 1.5 3.9 0 .2-2.7.4-6 .4-7.2 0-8-1-8-10.3 0-5.1-.4-6.8-2-8.2-2.7-2.4-3.1-1-2.8 9.6l.3 8.4-4.9.3c-2.7.2-5.2 0-5.7-.5-.4-.4-1-12.4-1.4-26.6l-.8-25.7h10.7c10.5 0 10.8.1 13.6 2.8zm323-.4c0 4.2-1 5.6-4.2 5.6h-3l.3 7.7c.2 4.3.3 14.4.1 22.5L517 530h-9.7l-.7-5.3c-.3-2.8-.6-12.3-.6-20.9 0-8.6-.3-16.3-.6-17.2-.4-1-1.8-1.6-3.5-1.6-2.7 0-2.9-.3-2.9-4v-4h25v2.4zm115 0c0 4.2-1 5.6-4.2 5.6h-3l.3 7.7c.2 4.3.3 14.4.1 22.5L632 530h-9.7l-.7-5.3c-.3-2.8-.6-12.3-.6-20.9 0-8.6-.3-16.3-.6-17.2-.4-1-1.8-1.6-3.5-1.6-2.7 0-2.9-.3-2.9-4v-4h25v2.4zm126 0c0 4.2-1 5.6-4.2 5.6h-3l.3 7.7c.2 4.3.3 14.4.1 22.5L758 530h-9.7l-.7-5.3c-.3-2.8-.6-12.3-.6-20.9 0-8.6-.3-16.3-.6-17.2-.4-1-1.8-1.6-3.5-1.6-2.7 0-2.9-.3-2.9-4v-4h25v2.4zm55-.2c2.5 6 6.9 27.4 9.5 46l.6 4.8h-5c-5.4 0-5.4 0-6.3-6.5-.3-1.6-1.2-2.1-4.5-2.3l-4.2-.3-.6 4.5-.7 4.6h-6c-5.1 0-5.9-.2-5.4-1.6.3-.9 2.2-9.8 4.1-19.8 5.4-28.3 5.8-30.1 6.9-30.8.6-.4 3.2-.8 5.9-.8 4 0 4.9.4 5.7 2.2zm-496.1 5.5c0 3.8-.4 14.8-.8 24.5-.6 16.6-.8 17.9-3 20.2-2.7 2.9-7 3.7-13.2 2.4-6.5-1.3-8.9-4.2-9.6-11.6-.5-5.6-.4-5.9 1.8-6.5 1.3-.4 3.6-.7 5-.7 2.3 0 2.7.5 3.3 3.7.7 4.7 2 6.8 3.5 5.9.7-.5 1.1-7.6 1.1-22.7V478h12l-.1 6.7zm556.5-1.5c.3 2.9.6 12.2.6 20.5V519h11v4.9c0 4.6-.1 4.9-3.1 5.5-1.7.3-6.6.6-10.9.6h-7.7l-.7-3.1c-.3-1.7-.6-13.4-.6-26V478h10.7l.7 5.2zm-695.1 65.3c16.4 2.9 26.2 8 33.3 17.7 15.2 20.6 18.4 42.7 18.9 129.3.2 46.2-.4 59.9-3 68.8-4.1 13.8-14.2 26-26.6 32.1-14.8 7.2-25.5 8.6-64.6 8.6H114l-.1-7.8c0-4.2-.2-40.6-.3-80.7-.1-40.2-.8-86.1-1.5-102-.7-16.4-.9-36.6-.6-46.6l.7-17.6 16.7-1.5c22.6-2.1 45.7-2.2 56.4-.3zm139.5 44c.9 50.2.5 80.3-1.4 111.4-1.8 30.3-.9 42.2 4.2 52.3 4.1 8.1 13 12.7 21.8 11.3 8.2-1.4 12.8-6.1 15.5-16 3.6-13.5 5.4-72.9 3.1-103.5-.5-6.9-1-30.5-1-52.5l-.1-40 20.8.3c11.4.2 20.9.5 21 .6.1.1.4 47.8.6 106.1.3 83.9.2 107.2-.9 112.1-3.5 17-14.7 28.3-32.4 32.9-7.9 2.1-47.2 3.7-57 2.3-16.2-2.2-26.6-12.4-31.5-31.3-2-7.7-3.1-35.5-4.6-113.1-1-52.5-.6-110.3.8-112.7.2-.4 9.4-.6 20.4-.5l20 .3.7 40zm560.7-39.3c1.2 1.2 1.4 33.7.5 103.7-.6 41.5-1.3 78.3-1.6 81.8l-.7 6.3h-19.8c-19.8 0-19.9 0-20.3-2.3-.3-1.2-1-13.2-1.6-26.7-.6-13.5-1.7-36-2.5-50-2.9-52.2-3.5-67-3.8-89-.1-12.4.1-23 .6-23.7.5-.8 7.2-1.1 24.7-.9 13.2.2 24.2.5 24.5.8zm-380.3 9.3c1 4.4 2.5 12.9 3.3 19 .9 6 3.2 18 5.1 26.5 1.9 8.5 5.7 25.4 8.4 37.5 5.7 25.1 9 36.9 10.1 35.8.4-.4 2.3-10 4.3-21.3 5.7-31.6 6.3-34.9 12.7-59.9 3.3-12.9 6.7-27.5 7.5-32.5.8-5 2.2-9.6 2.9-10.2 1.6-1.2 22-2.4 40.8-2.4h12l-.6 13.2c-2.3 49-2.8 63.5-3 98.3-.1 21.4.2 61.1.7 88.2l.9 49.2-2.9 1.3c-3.9 1.6-35 1.6-36.7-.1-.8-.8-1.4-13.2-1.9-42.4-.4-22.6-1.2-44.4-1.7-48.2-.6-3.9-1.1-8.1-1.1-9.5-.4-7.9-11.1 35-18.5 74.4-1.3 7.1-2.6 13.1-2.9 13.3-1.2 1.3-17.5 1.3-22.1.1l-5-1.3-1.3-6.5c-4.7-22.9-19.2-76.6-20-74.1-.2.7.1 11.8.7 24.9.6 13 1.1 34.4 1.1 47.4v23.6l-2.7.6c-1.6.3-10.3.6-19.6.8l-16.7.3-.6-32.5c-.8-46.9-2.1-215.2-1.6-217.1.3-1.4 2.7-1.8 14.5-2.4 7.8-.4 16.2-1.1 18.7-1.5 2.5-.4 6.5-.7 8.9-.6l4.5.1 1.8 8zm247.6-5.5c10.6 1.4 18.4 4.3 23.4 8.8 8.5 7.7 10.3 15.6 10.1 44.7-.1 23.9-3.4 66.1-5.9 74.5-3.3 11.5-10.6 19.1-22 23-4.8 1.7-8.5 2-22.6 2H719v46.9c0 41.4-.2 47.1-1.6 48.5-2.2 2.2-36.5 2.4-38.7.2-1.6-1.6-2.1-8.8-3.7-49.6-4.3-111.1-6.2-197.5-4.3-199.3 1.1-1.1 73.1-.8 82.1.3zm133 228.1l.2 18.7-2.2.6c-3.7 1-37.2.7-38.8-.4-1.2-.7-1.6-3.7-1.9-13.5-.2-7 0-15.1.4-18.1l.6-5.4 18.2-.3c10-.1 19.3-.3 20.7-.2h2.5l.3 18.6z"/><path d="M812.1 267.2c-.1 17.2.2 36.4.5 42.7l.7 11.4 8.3-.6c12-.7 17.4-4.4 19.4-13.3.5-2.1 1-12.5 1-22.9 0-31-2.2-42.5-8.8-45.9-1.5-.7-6.8-1.7-11.9-2l-9.1-.7-.1 31.3zM302.4 257.1c0 12.3-.4 28.8-.8 36.5l-.7 14.2 9.9.7c11.9.8 14.8-.1 17.7-6 1.8-3.6 2-6 2-26 0-23.2-.6-27.4-4.8-33.5-3.3-5-7.6-7.1-15.9-7.7l-7.3-.6-.1 22.4zM121.2 486.2c-.8.8-1.2 6-1.2 16.9 0 13.2.3 16 1.6 17.4.9.9 2.1 1.4 2.8 1.2 1.5-.5 2.4-8.6 2.5-22.3.1-9.6-.2-11.3-1.7-12.7-2.2-2-2.5-2-4-.5zM686.2 486.2c-.8.8-1.2 6-1.2 16.9 0 13.2.3 16 1.6 17.4.9.9 2.1 1.4 2.8 1.2 1.5-.5 2.4-8.6 2.5-22.3.1-9.6-.2-11.3-1.7-12.7-2.2-2-2.5-2-4-.5zM190 491.4c0 3-.3 6.2-.6 7.1-.5 1.3-.2 1.6 1.7 1.3 2.1-.3 2.4-.9 2.7-5.6.3-5.1-.8-8.2-2.9-8.2-.5 0-.9 2.4-.9 5.4zM813 506.2c0 .7-.3 2.3-.6 3.5-.5 1.9-.2 2.3 1.5 2.3 2.2 0 2.5-1 1.5-4.8-.7-2.3-2.4-3.1-2.4-1zM152.4 611.1c.3 7.9 1 28.3 1.5 45.4.9 29.3 2.5 70.5 3.8 93.4l.5 10.4 4.7-.6c10.9-1.3 22.7-8.5 28-17 6.4-10.5 8.8-28.8 7.1-55.4-.6-9.8-1.7-28.6-2.5-41.8-1.4-26.4-2.5-31.4-8.5-38.7-5.1-6.2-12.2-8.9-24.6-9.6l-10.7-.5.7 14.4zM720 632.3v37.5l3.6.7c5.4 1 16.1-.5 18.7-2.6 1.3-.9 2.8-3.5 3.4-5.6 1.9-6.4 3.6-28.6 3.1-40.1-.5-12.7-2.8-18.6-9.1-23.6-3.5-2.8-4.8-3.1-11.8-3.5l-7.9-.3v37.5z"/></svg>