<svg version="1" xmlns="http://www.w3.org/2000/svg" width="682.667" height="682.667" viewBox="0 0 512.000000 512.000000"><path d="M425 195.5c0 21.7-.1 39.5-.3 39.5-.2 0-2.8-2.4-5.8-5.4-10.2-9.8-24.2-14.5-40-13.3-27.6 2.2-46.6 21-52.4 52.2-2.3 12-1.6 34.4 1.4 46 5.9 22.6 19.4 36.2 39.4 39.6 19.3 3.2 37.2-3.2 51.6-18.6l6-6.5.5 3.3c.3 1.7.7 6.6.9 10.8.2 4.2.7 8.1 1.1 8.7.4.7 2.9 1.2 5.7 1.2h4.9V156h-13v39.5zm-23 32.9c6.6 2.4 14.5 8.2 19 13.9l4 5v71.2l-4.9 6.1c-6.1 7.5-15.2 14.5-22.9 17.5-4.7 1.9-7.7 2.3-16.7 2.4-10.3 0-11.4-.2-17.5-3.1-11.6-5.5-18.9-15.6-22.7-30.9-2.4-9.9-2.4-36.3 0-45.9 4.9-19.6 16.3-32.4 32.8-37.1 6.8-1.9 22.5-1.4 28.9.9zM103.6 173.2c-.3 1.3-1.2 12.6-2 25.1-.8 12.6-1.6 23-1.8 23.2-.2.3-4.4.7-9.4 1-12.9.9-13.4 1.1-13.4 4.3 0 4.6 1.5 5.2 12.7 5.2h10.2l.3 51.7c.3 50.4.4 51.9 2.4 56.3 4.3 9 11.7 13.7 23.3 14.7 10.3.9 21.7-2.7 30-9.4 2.3-1.9 2.3-2 .7-5.2-2.3-4.4-3.9-4.7-7.8-1.7-13.5 10.2-28.2 8.5-33.9-3.9-1.7-3.7-1.9-7.5-1.9-53.3V232h42v-10h-42v-51h-4.5c-3.8 0-4.5.3-4.9 2.2z"/></svg>